REM DIRINDEX 1\2,1\3\7,1\3\8,1\4\9,1\4\10,1\4\11,1\5\12,1\5\13,1\5\14,1\6\15,1\6\16,1\6\17
REM DIRNAME "folder01","folder02","folder03","folder04","folder05","folder06","folder07","folder08","folder09","folder10","folder11","folder12","folder13","folder14","folder15","folder16","folder17"
TITLE ""
FILE "2Q_k_021-030.mp3" MP3
  TRACK 01 AUDIO
    TITLE "12:cjc174_1403"
    INDEX 01 00:00:00
  TRACK 02 AUDIO
    TITLE "0:"
    INDEX 01 00:02:19
  TRACK 03 AUDIO
    TITLE "13:cjc174_1404"
    INDEX 01 00:02:64
  TRACK 04 AUDIO
    TITLE "0:"
    INDEX 01 00:04:45
  TRACK 05 AUDIO
    TITLE "14:cjc174_1405"
    INDEX 01 00:05:15
  TRACK 06 AUDIO
    TITLE "14:cjc174_1406"
    INDEX 01 00:11:30
  TRACK 07 AUDIO
    TITLE "0:"
    INDEX 01 00:13:40
  TRACK 08 AUDIO
    TITLE "12:cjc174_1407"
    INDEX 01 00:14:12
  TRACK 09 AUDIO
    TITLE "0:"
    INDEX 01 00:15:63
  TRACK 10 AUDIO
    TITLE "13:cjc174_1408"
    INDEX 01 00:16:35
  TRACK 11 AUDIO
    TITLE "0:"
    INDEX 01 00:20:07
  TRACK 12 AUDIO
    TITLE "14:cjc174_1409"
    INDEX 01 00:20:52
  TRACK 13 AUDIO
    TITLE "14:cjc174_1410"
    INDEX 01 00:24:36
  TRACK 14 AUDIO
    TITLE "0:"
    INDEX 01 00:27:52
  TRACK 15 AUDIO
    TITLE "12:cjc174_1411"
    INDEX 01 00:28:24
  TRACK 16 AUDIO
    TITLE "0:"
    INDEX 01 00:29:57
  TRACK 17 AUDIO
    TITLE "13:cjc174_1412"
    INDEX 01 00:30:27
  TRACK 18 AUDIO
    TITLE "0:"
    INDEX 01 00:33:41
  TRACK 19 AUDIO
    TITLE "14:cjc174_1413"
    INDEX 01 00:34:13
  TRACK 20 AUDIO
    TITLE "14:cjc174_1414"
    INDEX 01 00:35:40
  TRACK 21 AUDIO
    TITLE "0:"
    INDEX 01 00:39:12
  TRACK 22 AUDIO
    TITLE "12:cjc174_1415"
    INDEX 01 00:39:59
  TRACK 23 AUDIO
    TITLE "0:"
    INDEX 01 00:40:74
  TRACK 24 AUDIO
    TITLE "13:cjc174_1416"
    INDEX 01 00:41:46
  TRACK 25 AUDIO
    TITLE "0:"
    INDEX 01 00:42:56
  TRACK 26 AUDIO
    TITLE "14:cjc174_1417"
    INDEX 01 00:43:28
  TRACK 27 AUDIO
    TITLE "14:cjc174_1418"
    INDEX 01 00:45:27
  TRACK 28 AUDIO
    TITLE "14:cjc174_1419"
    INDEX 01 00:46:40
  TRACK 29 AUDIO
    TITLE "0:"
    INDEX 01 00:50:30
  TRACK 30 AUDIO
    TITLE "12:cjc174_1420"
    INDEX 01 00:51:02
  TRACK 31 AUDIO
    TITLE "0:"
    INDEX 01 00:52:42
  TRACK 32 AUDIO
    TITLE "13:cjc174_1421"
    INDEX 01 00:53:12
  TRACK 33 AUDIO
    TITLE "0:"
    INDEX 01 00:57:16
  TRACK 34 AUDIO
    TITLE "14:cjc174_1422"
    INDEX 01 00:57:63
  TRACK 35 AUDIO
    TITLE "14:cjc174_1423"
    INDEX 01 01:00:58
  TRACK 36 AUDIO
    TITLE "0:"
    INDEX 01 01:04:53
  TRACK 37 AUDIO
    TITLE "12:cjc174_1424"
    INDEX 01 01:05:23
  TRACK 38 AUDIO
    TITLE "0:"
    INDEX 01 01:06:74
  TRACK 39 AUDIO
    TITLE "13:cjc174_1425"
    INDEX 01 01:07:52
  TRACK 40 AUDIO
    TITLE "0:"
    INDEX 01 01:09:15
  TRACK 41 AUDIO
    TITLE "14:cjc174_1426"
    INDEX 01 01:09:60
  TRACK 42 AUDIO
    TITLE "14:cjc174_1427"
    INDEX 01 01:12:18
  TRACK 43 AUDIO
    TITLE "0:"
    INDEX 01 01:18:73
  TRACK 44 AUDIO
    TITLE "12:cjc174_1428"
    INDEX 01 01:19:45
  TRACK 45 AUDIO
    TITLE "0:"
    INDEX 01 01:21:21
  TRACK 46 AUDIO
    TITLE "13:cjc174_1429"
    INDEX 01 01:21:70
  TRACK 47 AUDIO
    TITLE "0:"
    INDEX 01 01:24:46
  TRACK 48 AUDIO
    TITLE "14:cjc174_1430"
    INDEX 01 01:25:16
  TRACK 49 AUDIO
    TITLE "14:cjc174_1431"
    INDEX 01 01:27:60
  TRACK 50 AUDIO
    TITLE "0:"
    INDEX 01 01:31:50
  TRACK 51 AUDIO
    TITLE "12:cjc174_1432"
    INDEX 01 01:32:24
  TRACK 52 AUDIO
    TITLE "0:"
    INDEX 01 01:33:71
  TRACK 53 AUDIO
    TITLE "13:cjc174_1433"
    INDEX 01 01:34:43
  TRACK 54 AUDIO
    TITLE "0:"
    INDEX 01 01:36:24
  TRACK 55 AUDIO
    TITLE "14:cjc174_1434"
    INDEX 01 01:36:71
  TRACK 56 AUDIO
    TITLE "14:cjc174_1435"
    INDEX 01 01:39:60
  TRACK 57 AUDIO
    TITLE "0:"
    INDEX 01 01:42:70
  TRACK 58 AUDIO
    TITLE "12:cjc174_1436"
    INDEX 01 01:43:42
  TRACK 59 AUDIO
    TITLE "0:"
    INDEX 01 01:45:05
  TRACK 60 AUDIO
    TITLE "13:cjc174_1437"
    INDEX 01 01:45:60
  TRACK 61 AUDIO
    TITLE "0:"
    INDEX 01 01:47:71
  TRACK 62 AUDIO
    TITLE "14:cjc174_1438"
    INDEX 01 01:48:43
  TRACK 63 AUDIO
    TITLE "14:cjc174_1439"
    INDEX 01 01:50:40
  TRACK 64 AUDIO
    TITLE "0:"
    INDEX 01 01:53:42
  TRACK 65 AUDIO
    TITLE "12:cjc174_1440"
    INDEX 01 01:54:20
  TRACK 66 AUDIO
    TITLE "0:"
    INDEX 01 01:55:45
  TRACK 67 AUDIO
    TITLE "13:cjc174_1441"
    INDEX 01 01:56:17
  TRACK 68 AUDIO
    TITLE "0:"
    INDEX 01 01:59:15
  TRACK 69 AUDIO
    TITLE "14:cjc174_1442"
    INDEX 01 01:59:58
  TRACK 70 AUDIO
    TITLE "14:cjc174_1443"
    INDEX 01 02:02:41
  TRACK 71 AUDIO
    TITLE "0:"
    INDEX 01 02:06:56
